1. Death on Two Legs
2. Lazing on a Sunday Afternoon
3. I\'m in Love with my Car
4. You\'re My Best Friend
5. \'39
6. Sweet Lady
7. Seaside Rendevous
8. Prophet\'s Song
9. Love of my life
10. Good Company
11. Bohemian Rhapsody
12. God Save the Queen



Exact Audio Copy V0.99 prebeta 5 from 4. May 2009

EAC extraction logfile from 27. December 2010, 1:06

Queen / A Night At The Opera

Used drive : PLEXTOR DVDR PX-760A Adapter: 1 ID: 0

Read mode : Secure
Utilize accurate stream : Yes
Defeat audio cache : Yes
Make use of C2 pointers : No

Read offset correction : 30
Overread into Lead-In and Lead-Out : Yes
Fill up missing offset samples with silence : Yes
Delete leading and trailing silent blocks : No
Null samples used in CRC calculations : No
Used interface : Native Win32 interface for Win NT & 2000

Used output format : Internal WAV Routines
Sample format : 44.100 Hz; 16 Bit; Stereo


TOC of the extracted CD

Track | Start | Length | Start sector | End sector
---------------------------------------------------------
1 | 0:00.37 | 3:43.18 | 37 | 16779
2 | 3:43.55 | 1:07.10 | 16780 | 21814
3 | 4:50.65 | 3:04.20 | 21815 | 35634
4 | 7:55.10 | 2:52.05 | 35635 | 48539
5 | 10:47.15 | 3:30.20 | 48540 | 64309
6 | 14:17.35 | 4:03.25 | 64310 | 82559
7 | 18:20.60 | 2:17.25 | 82560 | 92859
8 | 20:38.10 | 8:19.47 | 92860 | 130331
9 | 28:57.57 | 3:38.43 | 130332 | 146724
10 | 32:36.25 | 3:22.72 | 146725 | 161946
11 | 35:59.22 | 5:54.68 | 161947 | 188564
12 | 41:54.15 | 1:11.40 | 188565 | 193929


Range status and errors

Selected range

Filename C:\\Documents and Settings\\Administrator\\My Documents\\Rips\\Queen - A Night At The Opera (MFSL UDCD 568).wav

Peak level 96.7 %
Range quality 100.0 %
Copy CRC 76597D08
Copy OK

No errors occurred


AccurateRip summary

Track 1 accurately ripped (confidence 48) [D682FBC0]
Track 2 accurately ripped (confidence 47) [A4EB5043]
Track 3 accurately ripped (confidence 47) [EE265258]
Track 4 accurately ripped (confidence 47) [8D115751]
Track 5 accurately ripped (confidence 47) [57062174]
Track 6 accurately ripped (confidence 47) [00EC0AE8]
Track 7 accurately ripped (confidence 47) [C7F33638]
Track 8 accurately ripped (confidence 47) [DE4B81BD]
Track 9 accurately ripped (confidence 47) [98E9A17A]
Track 10 accurately ripped (confidence 47) [5EADD2CC]
Track 11 accurately ripped (confidence 47) [BD28E955]
Track 12 accurately ripped (confidence 45) [1F7D3781]

All tracks accurately ripped

End of status report
